<svg xmlns="http://www.w3.org/2000/svg" viewBox="0 0 164.684 168">
  <defs>
    <style>
      .cls-1 {
        fill: #f7a572;
      }

      .cls-2 {
        fill: #f69b81;
      }

      .cls-3 {
        fill: #f6958b;
      }

      .cls-4 {
        fill: #2b326f;
      }

      .cls-5 {
        fill: #f69887;
      }

      .cls-6 {
        fill: #f7a177;
      }

      .cls-7 {
        fill: #fcfbfb;
      }

      .cls-8 {
        fill: #8691ce;
      }

      .cls-9 {
        fill: #374091;
      }

      .cls-10 {
        fill: #f59292;
      }

      .cls-11 {
        fill: #f79f7a;
      }

      .cls-12 {
        fill: #d01e5c;
      }

      .cls-13 {
        fill: #9ca7da;
      }

      .cls-14 {
        fill: #343c87;
      }

      .cls-15 {
        fill: #f8b063;
      }

      .cls-16 {
        fill: #f69985;
      }

      .cls-17 {
        fill: #f69f7d;
      }

      .cls-18 {
        fill: #313982;
      }

      .cls-19 {
        fill: #f589a1;
      }

      .cls-20 {
        fill: #f8ac66;
      }

      .cls-21 {
        fill: #2d3576;
      }

      .cls-22 {
        fill: #f69b82;
      }

      .cls-23 {
        fill: #f6968c;
      }

      .cls-24 {
        fill: #f58f97;
      }

      .cls-25 {
        fill: #2e3577;
      }

      .cls-26 {
        fill: #3a4398;
      }

      .cls-27 {
        fill: #30387d;
      }

      .cls-28 {
        fill: #f69e7d;
      }

      .cls-29 {
        fill: #7b85c7;
      }

      .cls-30 {
        fill: #f7a76d;
      }

      .cls-31 {
        fill: #f58d99;
      }

      .cls-32 {
        fill: #6f7ac0;
      }

      .cls-33 {
        fill: #cb1b65;
      }

      .cls-34 {
        fill: #f6938f;
      }

      .cls-35 {
        fill: #f69987;
      }

      .cls-36 {
        fill: #c81a6a;
      }

      .cls-37 {
        fill: #d32058;
      }

      .cls-38 {
        fill: #313980;
      }

      .cls-39 {
        fill: #f7aa6a;
      }

      .cls-40 {
        fill: #c5196f;
      }

      .cls-41 {
        fill: #8b96d0;
      }

      .cls-42 {
        fill: #c31773;
      }

      .cls-43 {
        fill: #d52054;
      }

      .cls-44 {
        fill: #363f8e;
      }

      .cls-45 {
        fill: #6b75be;
      }

      .cls-46 {
        fill: #838ecc;
      }

      .cls-47 {
        fill: #c01678;
      }

      .cls-48 {
        fill: #3a4397;
      }

      .cls-49 {
        fill: #3b449b;
      }

      .cls-50 {
        fill: #f59096;
      }

      .cls-51 {
        fill: #f58c9d;
      }

      .cls-52 {
        fill: #cd1d61;
      }

      .cls-53 {
        fill: #f69292;
      }

      .cls-54 {
        fill: #2c3372;
      }

      .cls-55 {
        fill: #384192;
      }

      .cls-56 {
        fill: #d7214f;
      }

      .cls-57 {
        fill: #5a2f90;
      }

      .cls-58 {
        fill: #292f69;
      }

      .cls-59 {
        fill: #f58b9d;
      }

      .cls-60 {
        fill: #f585a8;
      }

      .cls-61 {
        fill: #323a83;
      }

      .cls-62 {
        fill: #bd157d;
      }

      .cls-63 {
        fill: #f582af;
      }

      .cls-64 {
        fill: #653494;
      }

      .cls-65 {
        fill: #753d9b;
      }

      .cls-66 {
        fill: #df2645;
      }

      .cls-67 {
        fill: #737ec3;
      }

      .cls-68 {
        fill: #bb1482;
      }

      .cls-69 {
        fill: #bc157f;
      }

      .cls-70 {
        fill: #f7a277;
      }

      .cls-71 {
        fill: #924ea9;
      }

      .cls-72 {
        fill: #3f49a1;
      }

      .cls-73 {
        fill: #f586a8;
      }

      .cls-74 {
        fill: #272d63;
      }

      .cls-75 {
        fill: #636db9;
      }

      .cls-76 {
        fill: #5f69b7;
      }

      .cls-77 {
        fill: #703a99;
      }

      .cls-78 {
        fill: #da254d;
      }

      .cls-79 {
        fill: #f7a573;
      }

      .cls-80 {
        fill: #dc2448;
      }

      .cls-81 {
        fill: #5b65b5;
      }

      .cls-82 {
        fill: #6b3797;
      }

      .cls-83 {
        fill: #f589a3;
      }

      .cls-84 {
        fill: #8a49a5;
      }

      .cls-85 {
        fill: #555fb2;
      }

      .cls-86 {
        fill: #6670bb;
      }

      .cls-87 {
        fill: #f7a96e;
      }

      .cls-88 {
        fill: #8042a0;
      }

      .cls-89 {
        fill: #5f3192;
      }

      .cls-90 {
        fill: #3f489e;
      }

      .cls-91 {
        fill: #e22a46;
      }

      .cls-92 {
        fill: #f9ae6b;
      }

      .cls-93 {
        fill: #cb1c67;
      }

      .cls-94 {
        fill: #cf1e60;
      }

      .cls-95 {
        fill: #4c57af;
      }

      .cls-96 {
        fill: #bc1a8d;
      }

      .cls-97 {
        fill: #d9244e;
      }

      .cls-98 {
        fill: #505aaf;
      }

      .cls-99 {
        fill: #ba1789;
      }

      .cls-100 {
        fill: #c41b73;
      }

      .cls-101 {
        fill: #9b54ad;
      }

      .cls-102 {
        fill: #c71b6e;
      }

      .cls-103 {
        fill: #c01677;
      }

      .cls-104 {
        fill: #d62254;
      }

      .cls-105 {
        fill: #f686b1;
      }

      .cls-106 {
        fill: #d21f59;
      }

      .cls-107 {
        fill: #a55bb3;
      }

      .cls-108 {
        fill: #384194;
      }

      .cls-109 {
        fill: #96a0d6;
      }

      .cls-110 {
        fill: #353e8b;
      }

      .cls-111 {
        fill: #30366d;
      }

      .cls-112 {
        fill: #7782c5;
      }

      .cls-113 {
        fill: #ba1a90;
      }

      .cls-114 {
        fill: #4650a6;
      }

      .cls-115 {
        fill: #30387e;
      }

      .cls-116 {
        fill: #343d89;
      }

      .cls-117 {
        fill: #7b409e;
      }

      .cls-118 {
        fill: #353e8d;
      }

      .cls-119 {
        fill: #333b86;
      }

      .cls-120 {
        fill: #2f377b;
      }

      .cls-121 {
        fill: #909ad3;
      }

      .cls-122 {
        fill: #7e89c9;
      }

      .cls-123 {
        fill: #8646a3;
      }
    </style>
  </defs>
  <g id="Groupe_189" data-name="Groupe 189" transform="translate(0.034 -0.017)">
    <path id="Tracé_170" data-name="Tracé 170" class="cls-1" d="M68.37,91.9h6.2c1.594,1.328,1.86,3.188,1.86,5.137,0,11.867.177,23.735-.089,35.513-.089,2.3.177,5.048-2.657,6.288a24.018,24.018,0,0,1-5.4-4.959,9.8,9.8,0,0,1-1.683-6.288c.089-10.008.089-20.015,0-30.111C66.6,95.531,66.6,93.406,68.37,91.9Z" transform="translate(-7.62 -10.509)"/>
    <path id="Tracé_171" data-name="Tracé 171" class="cls-2" d="M87.4,91.9h3.542c2.037,1.063,2.214,2.834,2.214,4.871v49.418c0,2.657-.266,5.137-3.808,5.048a6.413,6.413,0,0,1-2.745-2.568c-1.328-3.011-.443-6.111-.443-9.122-.089-14.081,0-28.163,0-42.244C86.074,95.354,85.808,93.406,87.4,91.9Z" transform="translate(-9.826 -10.509)"/>
    <path id="Tracé_172" data-name="Tracé 172" class="cls-3" d="M100.245,91.9H102.9c1.771.974,2.214,2.48,2.214,4.428.177,14.7-.443,29.4.354,44.1.089,1.86-.62,3.72-1.063,5.668a13.032,13.032,0,0,1-2.923,4.871c-1.063,1.151-2.3,2.568-3.808.443-.177-17.8-.177-35.6-.177-53.4C97.589,95.531,97.766,93.228,100.245,91.9Z" transform="translate(-11.156 -10.509)"/>
    <path id="Tracé_173" data-name="Tracé 173" class="cls-4" d="M114.7,162.311a8.012,8.012,0,0,1-4.782-.089,28.671,28.671,0,0,1-9.122.177,3.217,3.217,0,0,1-.177-4.074c4.074-5.4,7.351-11.513,12.4-16.207,5.668-2.745,7.7-1.594,7.971,4.605.089,2.3.089,4.694,0,7C120.9,160.008,120.543,160.54,114.7,162.311Z" transform="translate(-11.439 -16.093)"/>
    <path id="Tracé_174" data-name="Tracé 174" class="cls-5" d="M99.846,91.9a10.2,10.2,0,0,0-.886,5.137c0,13.639-.089,27.366.089,41,.089,4.782,1.594,9.565-.886,14.17.443.886-.089,1.328-.708,1.771-.974.62-1.417,2.657-3.1.974-.708-7.439-.089-14.967-.177-22.406-.089-11.779,0-23.558,0-35.248,0-1.86-.354-3.9,1.328-5.314C96.924,91.9,98.429,91.9,99.846,91.9Z" transform="translate(-10.757 -10.509)"/>
    <path id="Tracé_175" data-name="Tracé 175" class="cls-6" d="M74.6,138.927c1.86-15.675.443-31.351.886-47.027h4.428c1.594,1.417,1.771,3.277,1.771,5.225v37.9c0,3.011-.089,6.111-4.251,6.376A6.376,6.376,0,0,1,74.6,138.927Z" transform="translate(-8.536 -10.509)"/>
    <path id="Tracé_176" data-name="Tracé 176" class="cls-7" d="M97.8,154.287c.266-.62.443-1.151.708-1.771a23.687,23.687,0,0,0,4.517-6.2,24.911,24.911,0,0,0,1.86-4.162c1.151-1.771,2.3-3.542,3.365-5.4a45.7,45.7,0,0,0,5.225-7.085c2.3-1.948,3.542-4.782,5.314-7.174,2.834-2.923,4.517-6.642,7-9.742,2.568-2.657,4.34-5.845,6.288-8.856a46.356,46.356,0,0,0,5.668-7.351c.974-1.417,1.771-3.188,4.074-2.657l1.594,1.86c1.24,1.506-.266,2.657-.62,3.985a51.6,51.6,0,0,0-5.048,6.554,38.941,38.941,0,0,0-4.517,6.111c-.354.709-.8,1.328-1.24,2.037-1.417,1.948-3.365,3.365-4.34,5.579a9.789,9.789,0,0,0-1.948,3.011c-2.214,3.277-5.4,5.845-6.908,9.565-1.771,2.126-4.074,3.72-6.022,5.668-4.428,5.757-9.033,11.336-12.753,17.535q-.133.93-.8.266A6.569,6.569,0,0,0,97.8,154.287Z" transform="translate(-11.19 -10.726)"/>
    <path id="Tracé_177" data-name="Tracé 177" class="cls-8" d="M114.3,36.328a21.538,21.538,0,0,1,5.4-4.428c4.162,2.037,4.694,6.376,4.871,9.83.62,11.779.177,23.646.177,35.425a3.953,3.953,0,0,1-2.657,4.162c-1.683.266-3.365.62-4.871-.531.8-13.284.089-26.657.443-39.942C117.842,38.1,117.665,36.151,114.3,36.328Z" transform="translate(-13.077 -3.647)"/>
    <path id="Tracé_178" data-name="Tracé 178" class="cls-9" d="M150.551,157.391a24.078,24.078,0,0,1-7.971,0,1.2,1.2,0,0,1,.177-1.417,5.942,5.942,0,0,1,3.542-1.417c2.48.177,3.365-.974,3.365-3.454-.354-16.3.62-32.591-.531-48.886a5.757,5.757,0,0,1,.8-3.808,2.193,2.193,0,0,1,1.24-.709c3.277,3.365,3.188,8.325,5.668,12.044a4.387,4.387,0,0,1,.177,1.506c-.531,13.107-.177,26.126-.266,39.233,0,2.3.177,4.871-2.657,5.934C153.03,157.125,151.525,156.328,150.551,157.391Z" transform="translate(-16.294 -11.173)"/>
    <path id="Tracé_179" data-name="Tracé 179" class="cls-10" d="M110.168,137.41a13.643,13.643,0,0,1-3.631,5.048c-.8-5.934-.354-11.956-.443-17.978-.089-9.122,0-18.244,0-27.366,0-2.125-.089-4.162,2.214-5.314h1.771c2.3.62,3.1,2.125,3.188,4.605.089,10.716-.443,21.432.354,32.148C113.888,132.1,111.674,134.576,110.168,137.41Z" transform="translate(-12.134 -10.498)"/>
    <path id="Tracé_180" data-name="Tracé 180" class="cls-11" d="M77.8,141.495c2.568-1.771,2.48-4.428,2.48-7.174V91.9h3.542c1.328,1.24,1.328,2.834,1.328,4.517v43.75c0,2.391.089,4.871-3.277,5.137A15.23,15.23,0,0,1,77.8,141.495Z" transform="translate(-8.902 -10.509)"/>
    <path id="Tracé_181" data-name="Tracé 181" class="cls-12" d="M51.823,171.57a6.687,6.687,0,0,1-3.542-1.948c-1.948-1.506-1.771-3.631-1.594-5.668.886-10.539.266-21.078.354-31.617,0-2.126-.266-4.162,2.214-5.137a9.922,9.922,0,0,1,3.631,3.277,10.517,10.517,0,0,1,1.328,5.491c0,9.476,0,18.952-.089,28.517C54.126,166.964,54.48,169.8,51.823,171.57Z" transform="translate(-5.332 -14.547)"/>
    <path id="Tracé_182" data-name="Tracé 182" class="cls-13" d="M110.028,83.536h4.428a17.119,17.119,0,0,1,4.074-1.417,16.2,16.2,0,0,1,4.162-.354c4.34.089,4.782-.443,5.048-4.517.443-6.819-2.125-12.93-4.162-19.218a2.512,2.512,0,0,1,.354-1.151.938.938,0,0,1,1.151.089c3.9,8.236,7.793,16.473,11.69,24.62,1.594,3.365-.62,2.834-2.568,2.923-15.587.709-31.174.62-46.761.62-10.716,0-21.432.089-32.237,0-1.24,0-2.834,1.063-3.808-.8a17.611,17.611,0,0,1,7.085-1.948,30.293,30.293,0,0,0,7.971.62H95.327c4.605.089,9.21-.266,13.816.266A3.589,3.589,0,0,1,110.028,83.536Z" transform="translate(-5.883 -6.485)"/>
    <path id="Tracé_183" data-name="Tracé 183" class="cls-14" d="M43.714,80.747A18.428,18.428,0,0,1,38.4,76.319c3.277-.089,3.454-1.948,3.365-4.782-.089-10.273-.531-20.635.266-30.908.974-1.86,2.568-1.328,4.074-.974a5.567,5.567,0,0,1,2.48,2.834c1.24,11.69.708,23.469.266,35.159-.266.443-.531.886-.8,1.24C46.725,79.685,45.751,81.367,43.714,80.747Z" transform="translate(-4.396 -4.493)"/>
    <path id="Tracé_184" data-name="Tracé 184" class="cls-15" d="M53.872,122.843c-4.605-2.834-7-6.554-6.288-12.31a70.178,70.178,0,0,0,0-13.639c-.354-4.251,1.151-6.022,5.4-5.314a23.155,23.155,0,0,0,3.542.177c-1.417,9.21-.531,18.421-.886,27.631C55.555,120.894,56.175,122.577,53.872,122.843Z" transform="translate(-5.432 -10.455)"/>
    <path id="Tracé_185" data-name="Tracé 185" class="cls-16" d="M94.925,91.9c0,18.421.089,36.842-.089,55.263,0,2.568,2.037,5.579-1.063,7.793-1.506-1.063-3.1-2.037-4.074-3.72a4.988,4.988,0,0,0,2.568-4.782c0-16.915,0-33.831-.089-50.746a14.829,14.829,0,0,0-.886-3.808Z" transform="translate(-10.264 -10.509)"/>
    <path id="Tracé_186" data-name="Tracé 186" class="cls-17" d="M146.874,70.522a35.991,35.991,0,0,1-3.808-7.882c-1.063-9.21.089-18.509-.266-27.809-.089-1.24.266-2.657-1.063-3.542a3.543,3.543,0,0,1-1.063-.886,1.207,1.207,0,0,1,0-1.328c1.771-.266,3.542-.443,5.225.708a2.793,2.793,0,0,1,3.188.177c1.24,1.24,1.328,2.834,1.328,4.517V64.765C150.328,67.333,150.15,69.9,146.874,70.522Z" transform="translate(-16.071 -3.301)"/>
    <path id="Tracé_187" data-name="Tracé 187" class="cls-18" d="M130.369,121.994a23.687,23.687,0,0,1,4.517-6.2c4.162-1.771,6.111-.708,6.2,3.72.177,11.159.177,22.229,0,33.388,0,1.948.089,4.251-2.3,5.314-.886.531-2.214.266-3.011,1.151a10.793,10.793,0,0,1-5.314,0,.952.952,0,0,1-.177-1.24,2.6,2.6,0,0,1,1.063-.886c2.48-.443,2.745-2.125,2.745-4.251-.089-8.325-.089-16.738,0-25.063C134.177,124.917,133.2,122.968,130.369,121.994Z" transform="translate(-14.887 -13.149)"/>
    <path id="Tracé_188" data-name="Tracé 188" class="cls-19" d="M129.678,113.243a60.309,60.309,0,0,1-7.085,9.83c-1.948-2.391.177-4.782.089-7.174-.266-6.465-.089-12.93-.089-19.307,0-1.594-.177-3.277.886-4.694h7.085a5.066,5.066,0,0,1,2.745,4.694C133.4,102.439,133.752,108.284,129.678,113.243Z" transform="translate(-13.932 -10.509)"/>
    <path id="Tracé_189" data-name="Tracé 189" class="cls-20" d="M54.689,122.9c0-8.5,0-17.092-.089-25.594,0-2.391.443-4.251,2.745-5.4H60a5.828,5.828,0,0,1,1.771,4.694c0,7.7.089,15.5-.089,23.2-.089,2.568-.089,5.4-3.72,5.934C56.9,124.845,55.751,123.871,54.689,122.9Z" transform="translate(-6.249 -10.509)"/>
    <path id="Tracé_190" data-name="Tracé 190" class="cls-21" d="M115,142.569c1.506-2.125,3.1-4.251,4.605-6.288,1.24-.62,1.86-1.86,2.745-2.834.974-1.063,1.86-2.48,3.631-1.771,1.506.62,1.948,2.125,2.037,3.631.177,3.365.089,6.731.089,10.185,0,3.277,0,6.465-.089,9.742-.089,1.771-.177,3.542-1.683,4.782-.8.8-2.125.443-2.834,1.328a19.06,19.06,0,0,1-7.085,0c3.9-1.594,4.871-4.517,4.517-8.413a53.93,53.93,0,0,1,0-6.554C120.845,140,120.491,139.735,115,142.569Z" transform="translate(-13.157 -15.037)"/>
    <path id="Tracé_191" data-name="Tracé 191" class="cls-22" d="M147.7,70.594c1.506-2.125,1.683-4.605,1.683-7.174V29.855c3.277-1.063,4.782.354,4.871,3.542.089,12.487.266,24.886-.177,37.373-.089,2.037.886,6.022-3.542,6.022A18.848,18.848,0,0,1,147.7,70.594Z" transform="translate(-16.898 -3.373)"/>
    <path id="Tracé_192" data-name="Tracé 192" class="cls-23" d="M153.7,29.2h6.111a2.9,2.9,0,0,1,.974,1.328c.709,9.742-.089,19.484.443,29.137.266,4.517.266,8.768-2.3,12.753-1.151,1.417-2.391,2.834-3.542,4.251a2.982,2.982,0,0,1-1.063-2.745c1.328-13.107.266-26.214.708-39.322C155.117,32.565,154.231,30.971,153.7,29.2Z" transform="translate(-17.584 -3.338)"/>
    <path id="Tracé_193" data-name="Tracé 193" class="cls-24" d="M160.6,29.908V29.2h7.085a7.141,7.141,0,0,1,1.063,1.24c1.506,9.83.8,19.661.266,29.491-.089,1.594-1.683,2.391-2.125,3.808a11.294,11.294,0,0,1-3.543,4.34c-1.771-2.923-1.24-6.2-1.328-9.3-.266-8.059-.089-16.03-.089-24.089C161.928,33.008,162.194,31.237,160.6,29.908Z" transform="translate(-18.373 -3.338)"/>
    <path id="Tracé_194" data-name="Tracé 194" class="cls-25" d="M26.676,68.266A27.9,27.9,0,0,1,20.3,63.04c2.391-2.125,3.011-4.694,2.834-7.793-.177-3.631-.089-7.262,0-10.893.089-1.948.266-3.808,2.125-4.959,5.757-.266,6.819.531,6.908,6.2.089,6.288.266,12.664-.089,18.952C31.9,68.354,30.75,69.063,26.676,68.266Z" transform="translate(-2.326 -4.499)"/>
    <path id="Tracé_195" data-name="Tracé 195" class="cls-26" d="M157.55,111.656v-.886c-.62-1.063-.62-1.86.974-1.771a43.927,43.927,0,0,1,4.428,9.742c.62,2.923,2.391,5.4,2.745,8.413-.354,8.413.62,16.915-.709,25.329-.443,3.011-1.417,6.111-5.757,5.491-1.24-1.328-.8-3.011-.8-4.605,0-9.388-.089-18.775,0-28.074A57.971,57.971,0,0,0,157.55,111.656Z" transform="translate(-17.98 -12.464)"/>
    <path id="Tracé_196" data-name="Tracé 196" class="cls-27" d="M26.935,68.072c2.834-.089,3.9-1.417,3.72-4.428a184.328,184.328,0,0,1,0-18.509c.177-4.162-1.063-6.111-5.4-5.4-.177,0-.354.089-.531.089-1.24,0-2.391-.089-2.125-1.86,2.923-.8,5.757.177,8.591.708a1.515,1.515,0,0,1,1.506-.089c1.24.266,2.745.266,3.365,1.771,1.417,4.251.443,8.679.62,13.019.177,4.074.177,8.148,0,12.31-.266,4.517-1.86,6.022-5.491,6.022A13.868,13.868,0,0,1,26.935,68.072Z" transform="translate(-2.584 -4.305)"/>
    <path id="Tracé_197" data-name="Tracé 197" class="cls-28" d="M82.4,145.214c2.125-1.683,1.948-4.074,1.948-6.465V91.9h2.657v51.632c0,1.683.443,3.542-.886,5.048A10.429,10.429,0,0,1,82.4,145.214Z" transform="translate(-9.429 -10.509)"/>
    <path id="Tracé_198" data-name="Tracé 198" class="cls-29" d="M103.5,45.211a14.886,14.886,0,0,1,4.251-3.542c1.24-.266,2.3-1.771,3.808-.531,1.594,1.417,1.771,3.277,1.771,5.225V75.145c0,2.923-.531,5.668-3.9,6.642a7.939,7.939,0,0,1-3.808.177c1.328-10.273.443-20.546.708-30.82,0-1.86.531-3.985-1.948-4.871A2.068,2.068,0,0,1,103.5,45.211Z" transform="translate(-11.842 -4.648)"/>
    <path id="Tracé_199" data-name="Tracé 199" class="cls-30" d="M67.917,91.889c0,13.993-.089,27.986-.089,41.978-2.391-.886-3.631-2.923-5.137-4.782-.177-10.8.089-21.7,0-32.5A6.012,6.012,0,0,1,64.463,91.8C65.615,91.889,66.766,91.889,67.917,91.889Z" transform="translate(-7.167 -10.498)"/>
    <path id="Tracé_200" data-name="Tracé 200" class="cls-31" d="M115.428,91.9h2.657c1.86.709,3.542,1.683,3.454,3.9-.266,8.768,1.063,17.535-.886,26.214-.62,2.568-1.063,5.757-4.871,6.111-1.506-1.506-1.683-3.365-1.683-5.314V95.885A5.22,5.22,0,0,1,115.428,91.9Z" transform="translate(-13.054 -10.509)"/>
    <path id="Tracé_201" data-name="Tracé 201" class="cls-32" d="M91.3,55.246a16.682,16.682,0,0,1,5.579-4.34,3.722,3.722,0,0,1,2.3-.708,2.69,2.69,0,0,1,2.391,2.745c-.089,9.653.886,19.307-.443,28.871C99,83.763,96.348,83.143,93.78,83.232c-.62-.266-.974-.708-.708-1.328,2.125-7.174.531-14.524,1.151-21.7C94.488,57.549,92.628,56.575,91.3,55.246Z" transform="translate(-10.447 -5.738)"/>
    <path id="Tracé_202" data-name="Tracé 202" class="cls-33" d="M58.946,175.678a6.063,6.063,0,0,1-3.365-1.86c-1.771-2.923-.443-6.022-.443-9.033-.089-8.768,0-17.535,0-26.3,0-1.683-.443-3.542,1.417-4.782a14.906,14.906,0,0,1,4.251,3.9,14.682,14.682,0,0,1,.974,5.137c-.089,9.3,0,18.509-.089,27.809C61.692,172.756,62.046,175.147,58.946,175.678Z" transform="translate(-6.256 -15.29)"/>
    <path id="Tracé_203" data-name="Tracé 203" class="cls-34" d="M108.017,91.9a8.983,8.983,0,0,0-.8,2.48c-.089,13.2-.266,26.392.177,39.587a29.872,29.872,0,0,1-1.151,8.5,7.994,7.994,0,0,1-2.568,3.542c1.594-9.83.443-19.749.708-29.58.177-6.288,0-12.664,0-18.952,0-1.948.089-3.808-.886-5.579Z" transform="translate(-11.842 -10.509)"/>
    <path id="Tracé_204" data-name="Tracé 204" class="cls-35" d="M152.888,29.164c2.125,1.24,2.657,3.188,2.657,5.579-.089,11.779,0,23.558-.089,35.425a41.591,41.591,0,0,1-.886,6.554c-1.328,1.86-2.657,4.959-4.162.089,2.214-2.48,2.3-5.579,2.391-8.5.177-11.336.089-22.672.089-34.008,0-2.48-.443-4.428-3.542-4.34-.886,0-1.86-.089-2.745-.089C148.46,28.279,150.762,29.076,152.888,29.164Z" transform="translate(-16.772 -3.302)"/>
    <path id="Tracé_205" data-name="Tracé 205" class="cls-36" d="M59.5,176.193c1.417-1.417.974-3.277.974-5.048V143.779c0-1.948-.177-3.808.8-5.579a10.166,10.166,0,0,1,3.631,3.365,13.375,13.375,0,0,1,.974,3.808c-.177,9.476,0,18.864-.089,28.34,0,1.948.177,4.34-2.923,4.428A7.518,7.518,0,0,1,59.5,176.193Z" transform="translate(-6.809 -15.805)"/>
    <path id="Tracé_206" data-name="Tracé 206" class="cls-37" d="M48.776,126.82c-1.683,7.262-.62,14.613-.8,21.875-.177,6.819-.089,13.727-.177,20.546a10.831,10.831,0,0,1-4.605-2.568c.266-8.236.266-16.473.266-24.709,0-4.251,0-8.5-1.063-12.664.443-.708.886-1.506,1.328-2.214C45.234,124.075,46.917,123.721,48.776,126.82Z" transform="translate(-4.853 -14.256)"/>
    <path id="Tracé_207" data-name="Tracé 207" class="cls-38" d="M32.4,71.868c4.162-1.24,3.542-4.959,3.631-7.971.266-7.971.089-16.03.089-24,.886-.974,2.037-.886,3.188-.62a2.945,2.945,0,0,1,1.24,1.063c.974,10.539.354,21.078.354,31.705,0,2.391-1.771,3.542-4.162,3.454A13.4,13.4,0,0,1,32.4,71.868Z" transform="translate(-3.71 -4.47)"/>
    <path id="Tracé_208" data-name="Tracé 208" class="cls-39" d="M63.879,91.9v32.148c0,1.86.354,3.9-1.771,5.137a10.948,10.948,0,0,1-3.808-3.454c1.683-2.568,2.037-5.314,2.037-8.325-.089-8.5,0-17,0-25.506Z" transform="translate(-6.672 -10.509)"/>
    <path id="Tracé_209" data-name="Tracé 209" class="cls-40" d="M63.3,178.488c1.594-1.328,1.151-3.188,1.24-4.959,0-8.945,0-17.89.089-26.834A20.932,20.932,0,0,1,65.514,142c.886.8,1.771,1.683,2.745,2.48a18.434,18.434,0,0,1,1.683,8.148v23.38c0,1.948.177,3.9-1.771,5.137A12.344,12.344,0,0,1,63.3,178.488Z" transform="translate(-7.244 -16.24)"/>
    <path id="Tracé_210" data-name="Tracé 210" class="cls-41" d="M126.776,80.549h-4.428c1.683-1.328,1.771-3.188,1.771-5.225,0-10.8.177-21.521-.089-32.325-.089-3.985-.886-8.059-3.631-11.336,1.063-1.506,2.037-1.417,2.745.266,1.24,2.923,2.48,5.757,3.72,8.679,0,1.506.886,2.745,1.063,4.162,1.328,10.716.708,21.521.62,32.325A4.9,4.9,0,0,1,126.776,80.549Z" transform="translate(-13.775 -3.498)"/>
    <path id="Tracé_211" data-name="Tracé 211" class="cls-42" d="M68.6,181.365c0-12.222.089-24.443.089-36.665a10.23,10.23,0,0,1,3.365,3.1,13.538,13.538,0,0,1,1.86,7.616c0,7.971.089,15.941-.089,23.823,0,1.506.886,3.808-1.948,3.9A5.481,5.481,0,0,1,68.6,181.365Z" transform="translate(-7.85 -16.549)"/>
    <path id="Tracé_212" data-name="Tracé 212" class="cls-43" d="M42.068,129.9c1.683.886,2.834,2.125,2.834,4.074-.266,10.362.886,20.724-.886,31a3.83,3.83,0,0,1-1.151,2.3c-.62-.266-1.151-.62-1.771-.886C39.677,164,39.5,161.428,39.5,158.771c0-8.413.089-16.827,0-25.329A10.12,10.12,0,0,1,42.068,129.9Z" transform="translate(-4.522 -14.856)"/>
    <path id="Tracé_213" data-name="Tracé 213" class="cls-44" d="M48.347,41.634l-1.771-1.771a.729.729,0,0,1,.089-1.063,49.985,49.985,0,0,1,8.945,6.111C57.557,47.3,58,49.959,57.646,53.059a49.956,49.956,0,0,0,0,13.107c.531,4.517-.974,7.7-5.225,9.476a2.1,2.1,0,0,1-1.328-.8c-1.151-1.506-.886-3.365-.886-5.048V48.365A10.5,10.5,0,0,0,48.347,41.634Z" transform="translate(-5.309 -4.436)"/>
    <path id="Tracé_214" data-name="Tracé 214" class="cls-45" d="M91.083,55.768c.974-.266,1.948-.443,2.923-.8,1.506-.531,2.037-.177,2.037,1.594-.177,7.439-.266,14.878-.177,22.318A4.719,4.719,0,0,1,93.12,83.4a3.721,3.721,0,0,1-3.72,0c1.24-7,.443-14.081.62-21.078.089-1.948,0-3.808.266-5.757A3.382,3.382,0,0,1,91.083,55.768Z" transform="translate(-10.229 -6.26)"/>
    <path id="Tracé_215" data-name="Tracé 215" class="cls-46" d="M114.186,36.807c4.428-1.948,4.871.266,4.782,4.074-.177,11.6-.089,23.2-.089,34.716,0,2.125.089,4.162-1.771,5.579h0a2.4,2.4,0,0,1-2.923-.089c.443-11.69.177-23.469.266-35.159a23.433,23.433,0,0,0-.62-7,3.913,3.913,0,0,1-.531-1.417C113.654,37.25,113.92,36.984,114.186,36.807Z" transform="translate(-12.963 -4.125)"/>
    <path id="Tracé_216" data-name="Tracé 216" class="cls-47" d="M72.3,183.536c.531-11.07.354-22.141.089-33.211a17.2,17.2,0,0,1,.177-2.125c.886.886,1.771,1.683,2.745,2.568,2.3,2.391,2.923,5.225,2.745,8.5-.354,6.908.531,13.816-.62,20.635-.354,1.948-.089,4.694-3.365,4.605C73.451,184.156,72.92,183.891,72.3,183.536Z" transform="translate(-8.273 -16.949)"/>
    <path id="Tracé_217" data-name="Tracé 217" class="cls-48" d="M64.1,69.552c-1.506,1.24-3.011,2.48-4.605,3.72a2.1,2.1,0,0,1-.8-1.948,85.587,85.587,0,0,0,.177-22.318,1.647,1.647,0,0,1,.8-1.506c2.037,1.328,4.074,2.745,6.111,4.074,1.24,2.125,4.162,2.923,4.428,5.845.266,3.1,0,5.845-2.568,8.059C66.226,66.807,64.809,67.869,64.1,69.552Z" transform="translate(-6.716 -5.431)"/>
    <path id="Tracé_218" data-name="Tracé 218" class="cls-49" d="M159.347,159.894c3.631-.354,4.34-3.011,4.428-5.934.089-8.679-.354-17.27.886-25.86,4.251,3.1,4.34,8.236,5.668,12.576,1.417,4.871.089,9.565-2.923,13.727a13.823,13.823,0,0,0-2.568,4.074c-1.417,3.542-4.34,3.011-7.174,2.568a.941.941,0,0,1-.089-1.24A1.256,1.256,0,0,1,159.347,159.894Z" transform="translate(-18.005 -14.65)"/>
    <path id="Tracé_219" data-name="Tracé 219" class="cls-50" d="M115.017,91.9c.354,12.133-.886,24.266.886,36.4a1.48,1.48,0,0,1,.089,1.948,26.434,26.434,0,0,1-5.314,7.262c2.214-4.517,1.683-9.476,1.683-14.259V97.125c0-2.037-.177-3.808-1.86-5.225Z" transform="translate(-12.643 -10.509)"/>
    <path id="Tracé_220" data-name="Tracé 220" class="cls-51" d="M116.689,130.259a14.35,14.35,0,0,0-.089-1.948c3.454-2.923,3.454-6.908,3.542-10.893.089-6.908,0-13.816.089-20.724A5.524,5.524,0,0,0,118.371,92H122.8c1.683,3.808.974,7.882.8,11.779-.266,6.465,1.771,13.2-1.683,19.4A28.733,28.733,0,0,1,116.689,130.259Z" transform="translate(-13.34 -10.521)"/>
    <path id="Tracé_221" data-name="Tracé 221" class="cls-52" d="M56.231,133.38c0,11.69,0,23.292-.089,34.982,0,1.771.443,3.542-.8,5.137a4.074,4.074,0,0,1-2.745-1.506c1.86-13.639.531-27.366.974-41.093A6,6,0,0,1,56.231,133.38Z" transform="translate(-6.02 -14.97)"/>
    <path id="Tracé_222" data-name="Tracé 222" class="cls-53" d="M160.5,30c2.923,0,2.657,2.125,2.657,4.074V57.809c0,3.454,1.683,6.908.089,10.362a15.254,15.254,0,0,1-3.542,4.34C161.56,58.34,160.054,44.17,160.5,30Z" transform="translate(-18.27 -3.429)"/>
    <path id="Tracé_223" data-name="Tracé 223" class="cls-54" d="M24.433,39.921c0,6.111-.177,12.31.089,18.421.177,3.72-.708,5.579-4.782,4.782a14.191,14.191,0,0,1-4.34-3.631c2.3-1.24,2.834-3.188,2.834-5.757,0-4.428-.886-9.033.8-13.373a2.815,2.815,0,0,1,1.063-.974,7.991,7.991,0,0,1,4.34.531Z" transform="translate(-1.765 -4.494)"/>
    <path id="Tracé_224" data-name="Tracé 224" class="cls-55" d="M58.846,47.371c2.745,8.591,2.391,17.181-.089,25.683-2.037,1.683-4.074,3.277-6.111,4.959a1.485,1.485,0,0,1-.089-1.948c3.542-2.125,4.517-4.871,3.808-9.21a37.806,37.806,0,0,1,.266-14.79c.531-2.3-.354-4.34-.443-6.465C57.164,46.22,58.049,46.84,58.846,47.371Z" transform="translate(-5.979 -5.214)"/>
    <path id="Tracé_225" data-name="Tracé 225" class="cls-56" d="M39.133,134a3.507,3.507,0,0,1,1.771,3.277c-.089,9.919-.177,19.749-.177,29.668a.457.457,0,0,1-.62-.266c-3.542-1.948-4.251-4.871-4.074-8.768.177-5.225.62-10.45-.443-15.675-.531-2.657,1.948-4.428,2.657-6.731A6.14,6.14,0,0,1,39.133,134Z" transform="translate(-4.066 -15.325)"/>
    <path id="Tracé_226" data-name="Tracé 226" class="cls-57" d="M86.042,50.84c-1.506.62-2.834.886-2.657-1.506,1.151-1.24,1.24-2.391-.089-3.542l-.177-.266.177-.266c-.709-1.506,0-3.277-.62-4.782.266-5.048-2.214-10.008-.089-15.056a7.991,7.991,0,0,1,1.24-1.771c.8-.886.443-3.011,2.3-2.657,1.683.354,2.037,1.948,2.037,3.454.089,7.793.531,15.5-.266,23.292A9.97,9.97,0,0,1,86.042,50.84Z" transform="translate(-9.351 -2.395)"/>
    <path id="Tracé_227" data-name="Tracé 227" class="cls-58" d="M2.584,38H9.669c1.683,1.151,4.162.177,5.4,2.214,1.594,4.251,1.063,8.679.62,13.019-.354,3.9-2.214,4.251-7.085,1.594a12.968,12.968,0,0,1-4.34-3.542c.177-1.506,1.948-1.948,2.214-3.188.62-2.657,1.594-5.579-2.037-7.174C3.292,40.48,2.052,39.771,2.584,38Z" transform="translate(-0.285 -4.344)"/>
    <path id="Tracé_228" data-name="Tracé 228" class="cls-59" d="M167.7,63.809c1.594-3.985.708-8.148.8-12.133.089-7.262,0-14.436.089-21.7,3.454-.708,4.871.8,4.871,4.162,0,6.465-.089,12.842.089,19.307.089,2.391-1.328,4.162-2.125,6.111A11.474,11.474,0,0,1,167.7,63.809Z" transform="translate(-19.185 -3.407)"/>
    <path id="Tracé_229" data-name="Tracé 229" class="cls-60" d="M130.7,113.243a39.715,39.715,0,0,0,.8-21.343h5.314c6.111,1.328,6.819,3.365,2.923,8.325a20.6,20.6,0,0,0-2.745,4.428A40.455,40.455,0,0,1,130.7,113.243Z" transform="translate(-14.953 -10.509)"/>
    <path id="Tracé_230" data-name="Tracé 230" class="cls-61" d="M37.3,75.436c2.568-1.151,3.011-3.188,3.011-5.757-.089-9.919,0-19.838,0-29.757a1.775,1.775,0,0,1,2.657,0c.354,11.247-.708,22.583.62,33.831.531,4.782-3.188,2.3-5.225,2.568A11.246,11.246,0,0,1,37.3,75.436Z" transform="translate(-4.27 -4.496)"/>
    <path id="Tracé_231" data-name="Tracé 231" class="cls-62" d="M74.2,184.842c2.391-1.063,2.125-3.277,2.125-5.314.089-7.971.089-15.853.266-23.823,0-1.771-1.063-3.011-1.24-4.605a15.564,15.564,0,0,1,4.517,4.162c2.745,9.21,3.277,18.332-1.771,27.011C77.123,183.425,77.211,186.436,74.2,184.842Z" transform="translate(-8.491 -17.281)"/>
    <path id="Tracé_232" data-name="Tracé 232" class="cls-63" d="M179.346,29.163c4.251-.974,5.579.531,5.579,4.959.089,7,.089,13.55-6.465,18.067-1.86-2.037-.708-4.517-.886-6.819-.266-3.808,0-7.616-.089-11.513C177.575,32.086,177.752,30.315,179.346,29.163Z" transform="translate(-20.293 -3.301)"/>
    <path id="Tracé_233" data-name="Tracé 233" class="cls-64" d="M86.486,49.823a2.738,2.738,0,0,1,.886-2.391c1.86-8.413.531-16.915.886-25.417.089-1.86-1.151-2.568-2.657-3.011a21.912,21.912,0,0,1,2.834-6.2c2.214-1.417,3.454-.8,4.162,1.683a14.233,14.233,0,0,1,.531,4.34c-.089,7.793.266,15.587-.266,23.38.177,1.506-1.151,2.3-1.594,3.542C89.674,47.166,88.08,48.494,86.486,49.823Z" transform="translate(-9.795 -1.377)"/>
    <path id="Tracé_234" data-name="Tracé 234" class="cls-4" d="M9.4,55.033c5.491.886,5.491.886,5.491-5.048v-10.1a3.27,3.27,0,0,1,4.428,0V60.169c-1.771-.266-3.188-.531-4.605-.708A23.186,23.186,0,0,1,9.4,55.033Z" transform="translate(-1.079 -4.462)"/>
    <path id="Tracé_235" data-name="Tracé 235" class="cls-65" d="M97.222,39.979c-.266.354-.531.8-.8,1.151-1.948-1.328-1.417-3.454-1.417-5.314-.089-8.591,0-17.093,0-25.683a23.227,23.227,0,0,0-.708-7c-.089-2.125,1.417-1.948,2.834-2.037a3.609,3.609,0,0,1,1.594.443,4.128,4.128,0,0,1,1.506,3.9c-.089,10.273.354,20.635-.266,30.908C99.613,38.03,98.2,38.827,97.222,39.979Z" transform="translate(-10.789 -0.124)"/>
    <path id="Tracé_236" data-name="Tracé 236" class="cls-66" d="M51.855,35.624c-3.277-1.063-4.517-3.188-4.162-6.642.266-2.745.089-5.579.089-8.325,0-4.959,0-4.959,4.605-2.923.531.266.974.62,1.506.886.974,4.782.266,9.653.354,14.436C54.246,34.473,53.715,35.8,51.855,35.624Z" transform="translate(-5.452 -1.88)"/>
    <path id="Tracé_237" data-name="Tracé 237" class="cls-67" d="M101.364,81.4c0-8.5.089-17.092-.089-25.594,0-1.86.708-4.162-1.683-5.4-.443-2.214,1.948-2.391,2.568-3.9a7.744,7.744,0,0,1,.886-.708l.177.266a4.175,4.175,0,0,1,2.48,3.808c.089,9.388.177,18.687-.089,28.074C105.615,80.251,105,82.908,101.364,81.4Z" transform="translate(-11.389 -5.237)"/>
    <path id="Tracé_238" data-name="Tracé 238" class="cls-68" d="M78.7,182.711c3.188-8.856.974-18.067,1.771-27.011.886.8,1.771,1.683,2.745,2.48,3.72,4.34,6.022,9.033,2.568,14.613-1.151,1.86-2.657,3.454-3.542,5.491A12.275,12.275,0,0,1,78.7,182.711Z" transform="translate(-9.005 -17.807)"/>
    <path id="Tracé_239" data-name="Tracé 239" class="cls-69" d="M74.03,50.034a4.4,4.4,0,0,1-2.568-1.771c-.531-6.111-.177-12.31-.266-18.421,0-1.328.089-2.657,1.328-3.542,1.506-.089,1.948,1.948,3.542,1.683a79.117,79.117,0,0,1,1.683,21.432C77.395,52.16,75.358,50.389,74.03,50.034Z" transform="translate(-8.143 -3.006)"/>
    <path id="Tracé_240" data-name="Tracé 240" class="cls-70" d="M141.366,30c2.214,0,2.657,1.328,2.657,3.188.266,9.21-.62,18.509.443,27.72.089.974-.8,1.506-1.506,1.948a19.575,19.575,0,0,1-3.277-7.174c.266-6.642-.266-13.373-.089-20.015C139.684,33.542,139.684,31.506,141.366,30Z" transform="translate(-15.966 -3.429)"/>
    <path id="Tracé_241" data-name="Tracé 241" class="cls-71" d="M94.7.888c3.631-1.506,7.351-.62,11.07-.531,2.48.089,2.48,2.745,3.188,4.605a17.025,17.025,0,0,0,1.948,4.959,9.1,9.1,0,0,0,.62,2.214c1.063,5.048,1.86,10.1.8,15.233a8.308,8.308,0,0,1-.8,1.063c-.266.266-.62.531-.886.8-.974.443-1.683,1.594-2.923.974-1.417-2.3-1.417-4.605-1.328-7.351.266-6.288,1.063-12.842-1.948-18.864C102.4,2.3,99.837,2.039,97.357,1.33,96.383,1.242,95.5,1.508,94.7.888Z" transform="translate(-10.835 0)"/>
    <path id="Tracé_242" data-name="Tracé 242" class="cls-72" d="M165.444,157.373c1.063-3.9,4.074-7.085,4.162-11.425.089-6.642-.266-13.2-4.251-18.864,0-2.48-2.657-4.34-1.683-7.085,3.631,7.793,7.262,15.587,10.982,23.38a2.925,2.925,0,0,1-.62,3.542C171.112,150.377,168.278,153.919,165.444,157.373Z" transform="translate(-18.7 -13.723)"/>
    <path id="Tracé_243" data-name="Tracé 243" class="cls-73" d="M178.8,29.189c.177,6.111-.531,12.31.443,18.421.266,1.771-1.417,2.923-1.328,4.517a11.987,11.987,0,0,1-3.542,4.34c-1.151-6.908-.177-13.816-.443-20.724-.089-2.3-.089-4.605-1.328-6.642C174.726,29.189,176.762,29.189,178.8,29.189Z" transform="translate(-19.746 -3.326)"/>
    <path id="Tracé_244" data-name="Tracé 244" class="cls-74" d="M2.3,38c.531.443,1.063,1.417,1.594,1.417C8.764,39.24,8.5,42.34,8.587,45.793c.089,3.542-.8,5.668-4.605,5.579C.7,48.982-1.155,41.72.7,38.266.882,38,1.767,38.089,2.3,38Z" transform="translate(0 -4.344)"/>
    <path id="Tracé_245" data-name="Tracé 245" class="cls-75" d="M80.3,64.394a13.289,13.289,0,0,1,4.428-3.542c2.923-1.063,4.162.177,4.251,3.011.089,5.4.089,10.893,0,16.3,0,2.214-1.063,3.631-3.365,3.9a9.584,9.584,0,0,1-3.9.266c.8-4.694.443-9.388.62-13.993A6.878,6.878,0,0,0,80.3,64.394Z" transform="translate(-9.188 -6.915)"/>
    <path id="Tracé_246" data-name="Tracé 246" class="cls-76" d="M78.962,64.9c2.745,0,3.9,1.417,3.808,4.162-.089,3.542-.177,7,0,10.539a4.634,4.634,0,0,1-2.745,4.959c-1.063.974-2.391.089-3.454.709H68.6c0-2.037,1.771-1.771,3.011-2.3,5.491-.443,5.757-.708,5.757-6.465,0-3.011.708-6.288-2.923-8.059A14.291,14.291,0,0,1,78.962,64.9Z" transform="translate(-7.85 -7.421)"/>
    <path id="Tracé_247" data-name="Tracé 247" class="cls-77" d="M94.229,2.956C96.62,3.753,96,5.79,96,7.384c.089,11.336.089,22.583.089,33.919a12.7,12.7,0,0,1-4.162,3.365c-1.24-1.063-.177-1.417.531-1.948,1.683-10.45.974-20.989.354-31.44-.089-1.948.62-4.074-.709-5.934.443-.8.8-1.683,1.24-2.48C93.7,2.513,93.963,2.513,94.229,2.956Z" transform="translate(-10.453 -0.297)"/>
    <path id="Tracé_248" data-name="Tracé 248" class="cls-78" d="M37.791,135.5c-2.037,8.945-.177,17.89-.708,26.834-.089,2.037,2.214,2.657,2.568,4.428a33.109,33.109,0,0,1-7.351-4.074,168.813,168.813,0,0,0,.089-17.712c0-.62.089-1.328.089-1.948A34.082,34.082,0,0,1,37.791,135.5Z" transform="translate(-3.698 -15.496)"/>
    <path id="Tracé_249" data-name="Tracé 249" class="cls-79" d="M140.9,29.968V48.92a11.259,11.259,0,0,1-1.683,6.731c-.531-1.151-1.151-2.391-1.683-3.542-1.948-5.668-2.214-11.425-1.948-17.358.089-2.125.443-4.162,2.923-4.871a1.528,1.528,0,0,1,1.506.089Z" transform="translate(-15.502 -3.397)"/>
    <path id="Tracé_250" data-name="Tracé 250" class="cls-80" d="M32.823,145c1.683,5.314.708,10.716.8,16.03a3.2,3.2,0,0,1-1.948,2.745,14.328,14.328,0,0,1-1.594-.886C24.764,157.753,26.092,148.985,32.823,145Z" transform="translate(-3.07 -16.583)"/>
    <path id="Tracé_251" data-name="Tracé 251" class="cls-81" d="M74.74,68.8c4.694-1.417,4.694-1.417,4.694,3.808v4.871c0,6.819,0,6.819-7.085,7.439-.8-1.948.974-3.542.974-5.4,0-2.834,0-5.491-2.923-7.085A12.233,12.233,0,0,1,74.74,68.8Z" transform="translate(-8.056 -7.775)"/>
    <path id="Tracé_252" data-name="Tracé 252" class="cls-82" d="M91.811,5.8c1.506.708,1.86,1.86,1.86,3.542,0,9.83.089,19.749.266,29.58,0,1.683-.089,3.277-1.771,4.251V20.059c0-1.86-.443-3.808-.443-5.668,0-2.125-1.24-2.3-2.923-2.214C89.863,10.051,90.837,7.925,91.811,5.8Z" transform="translate(-10.161 -0.661)"/>
    <path id="Tracé_253" data-name="Tracé 253" class="cls-83" d="M172.242,29.189c1.594.886,2.657,1.86,2.657,3.985-.089,6.554.177,13.107.177,19.572,0,1.24-.708,2.48-1.063,3.72a6.333,6.333,0,0,1-2.568,2.923c1.594-8.591.443-17.27.8-25.86.089-2.391-1.417-3.365-3.542-3.72V29.1C169.851,29.189,171,29.189,172.242,29.189Z" transform="translate(-19.299 -3.326)"/>
    <path id="Tracé_254" data-name="Tracé 254" class="cls-84" d="M106.064,3c3.985,2.48,1.86,6.554,2.3,9.742.708,5.845.354,11.779.354,17.712a2.493,2.493,0,0,1-.886,1.86c-1.063,2.3-3.277,3.365-5.225,4.782-.974-.886-.8-1.86-.266-2.923a6.781,6.781,0,0,0,2.391-5.757c-.089-6.819-.089-13.727,0-20.546C104.735,6.1,104.381,4.24,106.064,3Z" transform="translate(-11.66 -0.341)"/>
    <path id="Tracé_255" data-name="Tracé 255" class="cls-85" d="M69.084,72.8c3.9-1.771,5.225-.266,4.694,3.631-.443,3.1,1.506,6.908-2.657,8.856-1.24,0-2.48-.177-3.454.708H59.7c-.177-1.151.62-1.506,1.506-1.86.531-.089,1.151-.089,1.771-.177,1.86-.266,3.72-.531,4.517-2.745.974-2.745-1.328-3.454-2.657-4.782A11.953,11.953,0,0,1,69.084,72.8Z" transform="translate(-6.829 -8.241)"/>
    <path id="Tracé_256" data-name="Tracé 256" class="cls-86" d="M85.577,83.546c1.683-.974,2.834-2.214,2.745-4.428-.177-4.959-.089-9.919,0-14.79,0-2.125-.354-3.808-2.923-3.808a9.41,9.41,0,0,0,.974-.8c1.328-.8,2.745-1.417,3.542-2.834V56.8c1.594,1.86,1.063,4.162,1.063,6.376.089,5.137,0,10.273.089,15.41,0,1.948-.089,3.808-1.771,5.137a1.865,1.865,0,0,1-1.151.443C87.171,83.9,86.286,84.166,85.577,83.546Z" transform="translate(-9.772 -6.495)"/>
    <path id="Tracé_257" data-name="Tracé 257" class="cls-87" d="M138.653,29.938c-1.683,1.328-1.86,3.188-1.771,5.137.089,5.668.177,11.247.177,16.915a44.234,44.234,0,0,1-4.517-9.742c.177-2.657-1.594-4.959-1.151-7.7.443-2.834,1.417-4.694,4.428-4.959C136.882,29.5,137.856,29.23,138.653,29.938Z" transform="translate(-15.024 -3.368)"/>
    <path id="Tracé_258" data-name="Tracé 258" class="cls-88" d="M102.914,34.734a2.525,2.525,0,0,0-.708,2.214c-1.328,1.328-2.568,2.745-4.605,3.188a3.049,3.049,0,0,1,1.771-2.657c1.24-2.923.8-6.022.886-9.122.266-8.856-.443-17.8.354-26.657,2.48.177,3.631,1.506,3.631,3.985V30.66A7.682,7.682,0,0,1,102.914,34.734Z" transform="translate(-11.167 -0.192)"/>
    <path id="Tracé_259" data-name="Tracé 259" class="cls-89" d="M85.257,19.879c2.214-1.328,3.72-1.683,3.631,1.948C88.711,29,88.8,36.263,88.8,43.437a5.9,5.9,0,0,1-1.771,4.782V30.684a53.072,53.072,0,0,0-.531-9.122c-1.594,1.151-2.214,2.923-3.9,3.631A14.3,14.3,0,0,1,85.257,19.879Z" transform="translate(-9.452 -2.165)"/>
    <path id="Tracé_260" data-name="Tracé 260" class="cls-90" d="M64.8,70.09a4.25,4.25,0,0,1,.974-2.834c4.34-5.668,4.517-7.971.886-13.816a6.2,6.2,0,0,1-.266-1.24c3.9,1.417,6.022,5.314,9.742,7,.266,2.037-1.506,2.391-2.657,3.365C70.289,64.776,68.341,68.318,64.8,70.09Z" transform="translate(-7.414 -5.969)"/>
    <path id="Tracé_261" data-name="Tracé 261" class="cls-91" d="M32.3,144.886c-4.605,4.162-6.111,10.8-2.745,17.89C20.519,158.79,20.431,158.79,26.01,151c1.683-2.391,3.542-4.694,5.314-7A4.642,4.642,0,0,1,32.3,144.886Z" transform="translate(-2.545 -16.469)"/>
    <path id="Tracé_262" data-name="Tracé 262" class="cls-92" d="M135.435,29.855c-3.9,1.86-2.568,5.668-3.011,8.679-.177,1.151.62,2.568-.443,3.631-1.594-3.188-3.011-6.376-4.694-9.476s-.974-4.251,2.48-3.9c1.328.177,2.657.089,3.985.177C134.2,29.589,135.081,29.146,135.435,29.855Z" transform="translate(-14.463 -3.284)"/>
    <path id="Tracé_263" data-name="Tracé 263" class="cls-93" d="M65.1,44.221a4.9,4.9,0,0,1-2.657-1.771c-.8-5.579-.266-11.159-.354-16.738,0-1.24.177-2.391,1.417-3.011a4.042,4.042,0,0,1,2.568,1.151c2.391,6.376,1.417,12.93.62,19.4A1.137,1.137,0,0,1,65.1,44.221Z" transform="translate(-7.095 -2.594)"/>
    <path id="Tracé_264" data-name="Tracé 264" class="cls-94" d="M63.158,22.44c0,5.048-.089,10.185-.089,15.233,0,1.594.354,3.277-.974,4.517a4.9,4.9,0,0,1-2.657-1.771c-.8-5.4-.354-10.716-.354-16.118a3.78,3.78,0,0,1,1.24-3.1C61.387,21.643,62.272,22.086,63.158,22.44Z" transform="translate(-6.748 -2.423)"/>
    <path id="Tracé_265" data-name="Tracé 265" class="cls-95" d="M60.445,86.079c-.62.266-1.151.443-1.771.708-2.391.089-4.782.089-7.174.177a52.05,52.05,0,0,1,8.768-7.085c2.037-1.328,3.985-1.506,4.782,1.24.62,2.391.177,4.428-3.011,4.517A2.732,2.732,0,0,0,60.445,86.079Z" transform="translate(-5.894 -9.028)"/>
    <path id="Tracé_266" data-name="Tracé 266" class="cls-96" d="M74.4,50.24c1.948.354,3.011-.089,2.923-2.48-.354-6.554-.62-13.107-.886-19.661,1.771-.089,1.683,1.24,1.771,2.391.531,7.528,1.151,15.144,1.683,22.938C77.411,53.074,75.906,51.657,74.4,50.24Z" transform="translate(-8.514 -3.212)"/>
    <path id="Tracé_267" data-name="Tracé 267" class="cls-97" d="M52.4,35.913c1.86-2.125.8-4.694,1.063-7.085.266-3.277-.62-6.642.886-9.83a2.175,2.175,0,0,1,1.86.708c2.391,5.491,1.328,11.07.708,16.738a1.409,1.409,0,0,1-1.86,1.328A5.215,5.215,0,0,1,52.4,35.913Z" transform="translate(-5.997 -2.169)"/>
    <path id="Tracé_268" data-name="Tracé 268" class="cls-98" d="M61.589,85.726c1.063-.62,2.48-1.063,3.188-2.037,1.506-2.125-.177-4.251-3.277-4.251l3.454-2.657c1.417.886,4.074-2.923,4.428.62.266,2.657,2.214,6.908-3.011,7.793C64.865,85.372,63.183,85.549,61.589,85.726Z" transform="translate(-7.038 -8.675)"/>
    <path id="Tracé_269" data-name="Tracé 269" class="cls-99" d="M82.7,178.5a13.051,13.051,0,0,1,1.151-3.277c3.808-4.871,3.011-9.742.266-14.7a5.7,5.7,0,0,1-.443-2.125,17.443,17.443,0,0,1,5.137,5.048c.8,1.24,2.125,2.125,2.834,3.454-.177.266-.443.62-.62.886a8.291,8.291,0,0,0-3.011,3.72A27.57,27.57,0,0,1,82.7,178.5Z" transform="translate(-9.463 -18.116)"/>
    <path id="Tracé_270" data-name="Tracé 270" class="cls-100" d="M70.165,47.638c-1.151-.8-2.214-1.594-3.365-2.391,1.417-5.137.354-10.45.709-15.587.089-1.683-.531-3.542.974-4.959a3.407,3.407,0,0,1,2.568,1.063v17.27C71.051,44.626,71.494,46.309,70.165,47.638Z" transform="translate(-7.644 -2.823)"/>
    <path id="Tracé_271" data-name="Tracé 271" class="cls-101" d="M113.486,28.929c-.266-5.314-.62-10.627-.886-15.941,1.594-.531,1.417,1.417,2.391,1.771.089.266.177.62.266.886,0,2.125,1.328,3.9,1.948,5.845C118.534,25.741,118,26.892,113.486,28.929Z" transform="translate(-12.883 -1.473)"/>
    <path id="Tracé_272" data-name="Tracé 272" class="cls-102" d="M68.334,24.62c0,5.491,0,10.982-.089,16.561,0,1.506.531,3.277-1.594,4.074-.354-.266-.8-.531-1.151-.8,2.037-6.731.443-13.639.974-20.458A15.261,15.261,0,0,1,68.334,24.62Z" transform="translate(-7.496 -2.743)"/>
    <path id="Tracé_273" data-name="Tracé 273" class="cls-103" d="M70.582,47.775c.443-7.262-1.063-14.613.886-21.875.266.089.62.177.886.266V43.612c0,1.594.266,3.277-1.063,4.517A.557.557,0,0,1,70.582,47.775Z" transform="translate(-8.061 -2.96)"/>
    <path id="Tracé_274" data-name="Tracé 274" class="cls-104" d="M55.4,37.778c2.3-5.845.531-12.044,1.151-17.978a3.547,3.547,0,0,1,2.568,1.063c.089,4.959,0,9.83,0,14.79,0,1.417.354,2.923-.974,4.074A5.449,5.449,0,0,1,55.4,37.778Z" transform="translate(-6.34 -2.263)"/>
    <path id="Tracé_275" data-name="Tracé 275" class="cls-105" d="M137.689,104.63a7.264,7.264,0,0,1,1.771-4.34c3.188-4.162,2.745-5.934-1.86-8.413,2.48-.089,4.959-.089,7.439-.177,1.328,0,1.86.531,1.417,1.86C143.534,97.279,140.611,101,137.689,104.63Z" transform="translate(-15.742 -10.487)"/>
    <path id="Tracé_276" data-name="Tracé 276" class="cls-106" d="M58.5,39.864c.708-6.288-.974-12.664.974-18.864.266.089.62.177.886.266V35.878c0,1.594.354,3.277-.886,4.605C59.119,40.307,58.853,40.041,58.5,39.864Z" transform="translate(-6.694 -2.4)"/>
    <path id="Tracé_277" data-name="Tracé 277" class="cls-107" d="M113.6,29.284c3.1-1.771,3.9-4.162,2.834-7.616-.531-1.771-2.568-3.454-1.063-5.668.708,1.417,1.506,2.745,2.214,4.162,2.923,6.2,2.657,6.819-3.985,10.1Z" transform="translate(-12.997 -1.828)"/>
    <path id="Tracé_278" data-name="Tracé 278" class="cls-108" d="M158,107.708c-.354.62-.62,1.151-.974,1.771-2.923-3.277-2.391-7.882-4.428-11.513a.5.5,0,0,1,.886,0A42.436,42.436,0,0,1,158,107.708Z" transform="translate(-17.458 -11.173)"/>
    <path id="Tracé_279" data-name="Tracé 279" class="cls-109" d="M127.53,44.657c-.354-.886-1.063-1.771.089-2.657a82.306,82.306,0,0,1,6.2,13.284h-.974c-2.923-.8-3.631-3.1-3.985-5.668A34.282,34.282,0,0,0,127.53,44.657Z" transform="translate(-14.529 -4.802)"/>
    <path id="Tracé_280" data-name="Tracé 280" class="cls-110" d="M42.978,39.733H39.436c-.354-.354-.886-.443-1.24-.886a.764.764,0,0,1,.354-.886c2.391,0,4.871-.974,7.174.62a4.312,4.312,0,0,1-.089,1.063C44.749,40.442,43.864,39.645,42.978,39.733Z" transform="translate(-4.369 -4.306)"/>
    <path id="Tracé_281" data-name="Tracé 281" class="cls-9" d="M152.957,97.527h-.886c-2.125-.8-2.3,3.985-4.871,1.683.708-1.151,1.328-2.3,2.037-3.454C152.868,91.062,151.894,96.465,152.957,97.527Z" transform="translate(-16.84 -10.734)"/>
    <path id="Tracé_282" data-name="Tracé 282" class="cls-54" d="M19.456,39.771H15.028A5.685,5.685,0,0,1,10.6,38h6.2c.62,1.063,2.923-.62,2.657,1.771Z" transform="translate(-1.216 -4.344)"/>
    <path id="Tracé_283" data-name="Tracé 283" class="cls-111" d="M99.7,164.066a2.815,2.815,0,0,0,.8-.266c2.923,1.948,6.288.531,9.388,1.063C106.431,164.951,102.888,166.723,99.7,164.066Z" transform="translate(-11.407 -18.733)"/>
    <path id="Tracé_284" data-name="Tracé 284" class="cls-25" d="M20.257,39.771c-.886-.62-1.771-1.151-2.657-1.771h4.428c.886.62,1.771,1.151,2.657,1.771Z" transform="translate(-2.017 -4.344)"/>
    <path id="Tracé_285" data-name="Tracé 285" class="cls-44" d="M52.114,79.99c0,.62.089,1.328.089,1.948-1.151.974-2.3,1.86-3.454,2.834a.8.8,0,0,1-.177-1.24h0c1.506-.886.62-4.162,3.542-3.542Z" transform="translate(-5.534 -9.138)"/>
    <path id="Tracé_286" data-name="Tracé 286" class="cls-46" d="M111.223,40.623l-2.923.8a15.157,15.157,0,0,1,4.517-3.72l.266.354C113.525,39.648,112.728,40.357,111.223,40.623Z" transform="translate(-12.391 -4.31)"/>
    <path id="Tracé_287" data-name="Tracé 287" class="cls-112" d="M101.94,46.6c-.886,1.328-1.683,2.568-2.568,3.9H97.6C98.574,48.637,100.345,47.663,101.94,46.6Z" transform="translate(-11.167 -5.328)"/>
    <path id="Tracé_288" data-name="Tracé 288" class="cls-89" d="M83.5,49c2.48,1.151,2.568,2.3.089,3.542C83.589,51.3,83.589,50.151,83.5,49Z" transform="translate(-9.554 -5.603)"/>
    <path id="Tracé_289" data-name="Tracé 289" class="cls-110" d="M48.12,84c.089.443.089.886.177,1.24-1.151,1.151-2.125,3.188-3.9.531C45.64,85.24,46.88,84.62,48.12,84Z" transform="translate(-5.082 -9.606)"/>
    <path id="Tracé_290" data-name="Tracé 290" class="cls-101" d="M112.374,11.268c-.886-1.771-2.037-3.542-1.683-5.668a15.141,15.141,0,0,1,2.657,5.668A.693.693,0,0,1,112.374,11.268Z" transform="translate(-12.657 -0.639)"/>
    <path id="Tracé_291" data-name="Tracé 291" class="cls-113" d="M92.434,167.654A4.7,4.7,0,0,1,89.6,164.2C90.928,165,92.965,165.263,92.434,167.654Z" transform="translate(-10.252 -18.779)"/>
    <path id="Tracé_292" data-name="Tracé 292" class="cls-45" d="M89.942,56.7c-.089,2.3-1.771,2.568-3.542,2.834A9.16,9.16,0,0,1,89.942,56.7Z" transform="translate(-9.886 -6.483)"/>
    <path id="Tracé_293" data-name="Tracé 293" class="cls-101" d="M108.7,35.645a17.7,17.7,0,0,1,.886-1.86c.886-.266,1.771-.62,2.657-.886A4.185,4.185,0,0,1,108.7,35.645Z" transform="translate(-12.437 -3.761)"/>
    <path id="Tracé_294" data-name="Tracé 294" class="cls-114" d="M74.6,63.465c.886-1.151,1.771-2.214,2.657-3.365C78.408,62.845,76.017,62.757,74.6,63.465Z" transform="translate(-8.536 -6.872)"/>
    <path id="Tracé_295" data-name="Tracé 295" class="cls-14" d="M37.891,37.965v.886a4.878,4.878,0,0,1-4.428,0c-.354,0-.708-.089-1.063-.089C33.994,36.9,36.031,38.053,37.891,37.965Z" transform="translate(-3.71 -4.309)"/>
    <path id="Tracé_296" data-name="Tracé 296" class="cls-115" d="M124.6,164.871c.62-.354,1.151-.708,1.771-1.063,1.151-.708,2.391-1.151,3.542,0v1.063A10.793,10.793,0,0,1,124.6,164.871Z" transform="translate(-14.255 -18.653)"/>
    <path id="Tracé_297" data-name="Tracé 297" class="cls-116" d="M136.6,164.882c.62-.354,1.151-.708,1.771-1.063a3.488,3.488,0,0,1,3.1-.443c.177.177.354.266.443.443v1.063A10.793,10.793,0,0,1,136.6,164.882Z" transform="translate(-15.628 -18.664)"/>
    <path id="Tracé_298" data-name="Tracé 298" class="cls-26" d="M156.914,163.936V165a10.793,10.793,0,0,1-5.314,0c.709-.974,1.683-.974,2.657-1.063A2.02,2.02,0,0,1,156.914,163.936Z" transform="translate(-17.344 -18.692)"/>
    <path id="Tracé_299" data-name="Tracé 299" class="cls-113" d="M88.7,172.82a3.563,3.563,0,0,1,3.011-3.72A10.181,10.181,0,0,1,88.7,172.82Z" transform="translate(-10.149 -19.339)"/>
    <path id="Tracé_300" data-name="Tracé 300" class="cls-107" d="M112.566,12h.974c.443.886.886,1.771,1.417,2.657-.8-.62-1.594-1.151-2.391-1.771-.089-.177-.177-.443-.266-.62C112.3,12.177,112.477,12.089,112.566,12Z" transform="translate(-12.849 -1.371)"/>
    <path id="Tracé_301" data-name="Tracé 301" class="cls-70" d="M136.383,29.908A13.626,13.626,0,0,0,134.7,29.2h5.225v.708h-3.542Z" transform="translate(-15.411 -3.338)"/>
    <path id="Tracé_302" data-name="Tracé 302" class="cls-89" d="M82.795,43c1.151,1.506.708,3.188.62,4.782A9.683,9.683,0,0,1,82.795,43Z" transform="translate(-9.469 -4.916)"/>
    <path id="Tracé_303" data-name="Tracé 303" class="cls-117" d="M94.486,2.771H93.6A1.789,1.789,0,0,1,94.574,1c.8.089,1.683.089,2.48.177.62.177.62.443.089.708A3,3,0,0,0,94.486,2.771Z" transform="translate(-10.71 -0.112)"/>
    <path id="Tracé_304" data-name="Tracé 304" class="cls-118" d="M146.505,99.528c1.86.177,2.568-3.277,4.871-1.683-1.683,2.657.089,5.4.089,8.059q-.266,22.451,0,44.9c.089,4.074-1.417,5.757-5.4,5.491-.266-5.668.089-11.336,0-17-.089-9.21-.089-18.509,0-27.72,0-3.277-.8-5.225-4.162-5.757C143.494,103.779,145,101.654,146.505,99.528Z" transform="translate(-16.234 -11.141)"/>
    <path id="Tracé_305" data-name="Tracé 305" class="cls-116" d="M141.317,106.624c.177,0,.266-.089.443-.089,2.037-.089,2.391-3.808,4.428-2.568,2.037,1.328.974,4.074.974,6.2.089,13.816,0,27.543.089,41.359,0,2.125.089,4.162-1.771,5.579h-3.542c-1.151-2.48.089-4.959.089-7.439-.089-10.273,0-20.635-.089-30.908,0-5.048-.531-5.579-5.137-5.934C138.306,110.787,139.811,108.661,141.317,106.624Z" transform="translate(-15.651 -11.861)"/>
    <path id="Tracé_306" data-name="Tracé 306" class="cls-119" d="M136.628,113.587c2.48.177,2.657-4.517,5.137-2.834,1.771,1.24,1.594,4.34,1.594,6.554.177,11.69.177,23.469,0,35.159,0,1.771-1.063,3.631-1.683,5.4h-3.542c1.506-1.24,1.771-2.834,1.771-4.694q-.133-16.738,0-33.477c0-3.277-.974-5.048-4.605-4.34A18.4,18.4,0,0,0,136.628,113.587Z" transform="translate(-15.479 -12.624)"/>
    <path id="Tracé_307" data-name="Tracé 307" class="cls-120" d="M129.41,159.512h-3.542c1.86-5.757.531-11.69.886-17.447a55.4,55.4,0,0,0,0-6.642c-.089-1.24.62-3.011-.886-3.542-1.417-.531-2.125,1.24-3.1,1.948a25,25,0,0,1-2.568,1.594c2.391-3.277,4.782-6.465,7.174-9.742,2.568-1.86,3.985-.708,5.048,1.771.974,2.391.531,4.959.62,7.439.089,6.022,0,12.044,0,18.067,0,3.011-.8,5.225-3.631,6.554Z" transform="translate(-13.752 -14.268)"/>
    <path id="Tracé_308" data-name="Tracé 308" class="cls-115" d="M130.326,159.121A13.3,13.3,0,0,0,132.1,151.5c-.089-6.819.177-13.55-.177-20.369-.089-2.3.886-6.111-3.72-5.757a5.143,5.143,0,0,1,1.948-2.568c5.491-2.391,5.491-2.391,5.491,4.074,0,8.945-.177,17.89.089,26.834C135.816,157.7,134.311,159.387,130.326,159.121Z" transform="translate(-14.667 -13.877)"/>
    <path id="Tracé_309" data-name="Tracé 309" class="cls-108" d="M157.257,158.052H154.6c1.86-1.506,1.771-3.542,1.771-5.579.177-12.664-.443-25.24.354-37.9.089-.886.354-1.683.443-2.568a21.657,21.657,0,0,1,2.745,11.779c-.177,9.565-.089,19.129-.089,28.694,0,1.948.089,3.808-.886,5.579Z" transform="translate(-17.687 -12.808)"/>
    <path id="Tracé_310" data-name="Tracé 310" class="cls-121" d="M127.6,45l5.314,10.627h0a72.77,72.77,0,0,1,1.86,20.989c-.089,2.3-.354,4.428-2.745,5.579H127.6Q127.6,63.6,127.6,45Z" transform="translate(-14.599 -5.145)"/>
    <path id="Tracé_311" data-name="Tracé 311" class="cls-112" d="M88.543,82.286h4.428a19.266,19.266,0,0,0,7.085-.886c1.24-.089,2.568-.354,2.568-1.86-.177-11.159,1.063-22.318-.709-33.477,3.1-.886,4.34.354,4.34,3.454,0,9.388-.089,18.687,0,28.074,0,2.214-1.24,3.454-2.657,4.694-1.063.974-2.48,0-3.542.708-3.9,0-7.7,0-11.6-.089-.354-.177-.443-.354-.266-.443S88.454,82.286,88.543,82.286Z" transform="translate(-10.081 -5.235)"/>
    <path id="Tracé_312" data-name="Tracé 312" class="cls-109" d="M132.6,83.569c1.683-7.262.8-14.613.62-21.963,0-1.506-1.24-3.188.266-4.605,3.188,6.376,5.668,12.842,5.4,20.192C138.711,82.86,138.534,83.392,132.6,83.569Z" transform="translate(-15.17 -6.518)"/>
    <path id="Tracé_313" data-name="Tracé 313" class="cls-8" d="M101.6,87.61c1.063-.886,2.3-.708,3.542-.708h3.542c1.506-.531,2.923-1.417,4.428,0h2.657C111.165,88.5,106.382,87.433,101.6,87.61Z" transform="translate(-11.625 -9.85)"/>
    <path id="Tracé_314" data-name="Tracé 314" class="cls-45" d="M87.342,87a1.95,1.95,0,0,1-.089.708H77.6c1.063-.886,2.3-.708,3.542-.708h6.2Z" transform="translate(-8.88 -9.947)"/>
    <path id="Tracé_315" data-name="Tracé 315" class="cls-110" d="M52.142,75.654,48.6,79.2V42c2.923,1.151,3.542,3.542,3.542,6.376Z" transform="translate(-5.563 -4.802)"/>
    <path id="Tracé_316" data-name="Tracé 316" class="cls-61" d="M33.6,39h4.428l.886.886H36.257A3.269,3.269,0,0,1,33.6,39Z" transform="translate(-3.847 -4.459)"/>
    <path id="Tracé_317" data-name="Tracé 317" class="cls-122" d="M114.028,81.407H109.6a7.611,7.611,0,0,0,2.568-5.845c.089-10.362.089-20.635,0-31a20.306,20.306,0,0,0-.8-3.9c.62-.886,1.24-1.771,1.771-2.568,2.391.266,2.657,1.948,2.657,3.9V77.156A4.958,4.958,0,0,1,114.028,81.407Z" transform="translate(-12.54 -4.356)"/>
    <path id="Tracé_318" data-name="Tracé 318" class="cls-123" d="M97.589,1.892a1.726,1.726,0,0,0-.089-.708c2.834-.266,5.579-.266,8.059,1.594V30.409A4.675,4.675,0,0,1,102.9,34.66V6.586c0-2.037.177-4.251-2.657-4.694a1.183,1.183,0,0,1-1.771,0Z" transform="translate(-11.156 -0.119)"/>
    <path id="Tracé_319" data-name="Tracé 319" class="cls-117" d="M98.6,2h1.771c1.328,2.48.886,5.137.886,7.793.089,7.351,0,14.613,0,21.963,0,2.125-.089,4.162-1.771,5.668V8.022C99.486,5.985,99.663,3.86,98.6,2Z" transform="translate(-11.282 -0.227)"/>
  </g>
</svg>
